<svg width="224" height="224" viewBox="0 0 224 224" fill="none" xmlns="http://www.w3.org/2000/svg">
<g clip-path="url(#clip0_2991_73967)">
<rect width="224" height="224" fill="#F2F2F2"/>
<path d="M-39.9652 251.963C-41.7603 236.758 -38.0802 222.737 -34.5437 208.859C-32.8563 202.261 -35.8004 199.517 -40.8807 198.334C-50.0899 196.164 -59.1914 193.797 -68.2391 190.982C-100.301 181.013 -99.3494 154.028 -82.3851 137.604C-71.1652 126.739 -59.6223 116.662 -45.6918 109.257C-35.1002 103.627 -35.4054 102.64 -41.9937 93.1016C-49.9463 81.5904 -59.353 71.2268 -65.3668 58.1736C-76.6585 33.6631 -68.0057 7.01882 -40.773 -2.30487C-20.1644 -9.35143 0.839088 -11.4313 21.9862 -13.816C28.6463 -14.5691 35.1807 -16.5235 42.0383 -15.8959C46.9391 -15.4477 47.7828 -20.0378 49.1112 -23.2114C60.2592 -49.7302 78.965 -69.9016 101.746 -86.7739C110.416 -93.1929 119.626 -98.7334 130.002 -101.477C139.893 -104.094 149.515 -102.194 157.611 -95.4521C173.265 -82.4348 177.538 -63.895 180.895 -45.2835C182.564 -36.0315 185.419 -26.923 185.419 -17.2945C185.419 -12.7223 188.201 -9.78174 193.91 -10.1224C209.851 -11.0727 225.738 -9.47693 241.643 -8.45491C264.819 -6.96671 286.612 9.04494 290.957 28.7681C294.26 43.7578 288.569 57.4385 281.963 69.9538C275.034 83.0607 266.668 95.6118 256.813 106.962C252.845 111.534 255.035 115.156 260.259 116.536C276.631 120.84 291.28 128.621 305.587 137.443C324.455 149.062 327.273 168.588 312.912 185.442C296.342 204.896 274.136 216.067 252.325 227.668C244.103 232.043 239.13 236.149 240.028 246.333C241.589 263.94 237.82 281.261 232.434 297.721C226.797 314.97 210.713 323.486 187.465 321.066C166.174 318.843 147.756 308.82 129.858 297.434C119.59 290.907 108.065 286.389 97.15 280.902C93.1109 278.876 89.2333 279.88 85.7686 281.853C69.3249 291.158 53.1504 300.966 36.5809 310.057C22.9556 317.534 8.57627 322.536 -7.40075 318.556C-25.891 313.948 -31.833 299.012 -36.5364 283.108C-39.6241 272.744 -41.509 262.237 -39.9652 251.963ZM140.862 162.617C146.248 162.258 149.677 158.708 152.836 155.014C165.887 139.756 162.835 124.551 145.153 115.945C144.507 115.622 144.291 114.403 143.878 113.614C163.787 112.394 180.41 84.9254 171.937 63.8575C167.557 52.938 158.85 44.2419 147.253 44.6363C137.326 44.9591 127.65 50.6788 124.221 62.3693C123.198 65.8657 120.433 68.8421 118.028 72.7509C116.735 70.4917 115.425 69.2186 115.371 67.9097C115.138 62.0286 113.145 58.6757 107.077 55.8785C102.015 53.5476 97.7604 49.2623 91.6748 48.7244C76.0927 47.3797 68.9479 51.9519 61.1927 70.0972C54.1018 86.6467 56.9561 112.771 80.8858 117.702C82.4835 118.025 83.776 119.764 85.2121 120.84C84.9249 121.682 84.9249 122.902 84.3325 123.314C65.6807 136.457 73.8128 161.792 96.1627 166.579C96.5756 168.659 97.1141 170.721 97.3834 172.819C99.8607 191.825 114.904 199.463 131.384 190.068C139.552 185.388 145.135 169.233 140.862 162.617Z" fill="#7BC4FF"/>
<path d="M85.2053 120.822C83.7691 119.746 82.4587 118.025 80.8789 117.684C56.9493 112.771 54.1129 86.6467 61.1859 70.0792C68.941 51.9518 76.0858 47.3617 91.6679 48.7065C97.7535 49.2264 101.99 53.5297 107.07 55.8606C113.138 58.6577 115.131 62.0107 115.364 67.8918C115.418 69.2007 116.728 70.4737 118.021 72.7329C120.427 68.8241 123.191 65.8298 124.214 62.3513C127.643 50.6608 137.319 44.9411 147.246 44.6184C158.843 44.2418 167.55 52.92 171.93 63.8395C180.385 84.9075 163.78 112.377 143.871 113.578C140.335 113.578 136.798 113.578 133.262 113.578C128.451 109.508 122.796 106.424 119.008 101.134C117.949 99.6461 116.585 98.4268 114.897 101.045C109.35 109.687 103.767 118.347 91.3627 117.218C89.6753 117.074 89.0828 118.957 88.8495 120.535C87.6288 120.642 86.408 120.732 85.2053 120.822ZM101.721 83.9034C101.703 78.9188 99.7103 75.3686 94.5043 75.0459C88.0596 74.6335 84.8283 78.7933 84.4872 84.513C84.2179 88.9956 86.5337 93.4602 91.632 93.514C97.4304 93.5678 101.128 89.9817 101.721 83.9034ZM143.171 82.8096C142.669 78.0044 140.137 74.3825 134.914 73.737C130.282 73.1632 126.997 75.7631 126.907 80.4249C126.799 85.7681 129.331 90.161 135.255 90.43C139.707 90.6272 142.525 87.7763 143.171 82.8096Z" fill="#FBFCFC"/>
<path d="M85.2119 120.821C86.4327 120.732 87.6534 120.642 88.8741 120.552C94.9597 121.108 101.189 119.566 107.167 121.575C121.528 126.398 123.826 125.716 133.287 113.596C136.823 113.596 140.36 113.596 143.896 113.596C144.309 114.402 144.524 115.622 145.171 115.944C162.853 124.551 165.905 139.774 152.854 155.014C149.694 158.708 146.266 162.276 140.88 162.617C140.378 154.781 140.755 146.408 129.984 144.866C129.409 138.823 128.242 133.57 120.343 133.373C111.009 133.157 108.621 136.439 109.698 149.169C105.372 145.404 102.661 147.251 101.009 151.841C99.2681 156.7 97.7781 161.648 96.1804 166.561C73.8306 161.774 65.6805 136.439 84.3503 123.296C84.9068 122.901 84.9247 121.664 85.2119 120.821Z" fill="#5997FF"/>
<path d="M129.967 144.866C140.738 146.408 140.361 154.8 140.864 162.617C145.136 169.233 139.553 185.388 131.385 190.032C114.906 199.428 99.8621 191.789 97.3848 172.784C97.1155 170.686 96.577 168.624 96.1641 166.544C97.7618 161.631 99.2517 156.682 100.993 151.823C102.627 147.233 105.337 145.386 109.682 149.152L110.059 149.779C109.736 150.891 110.256 151.357 111.315 151.411L111.513 151.68C111.692 158.493 106.54 165.181 111.1 172.084C116.216 181.139 119.735 181.157 125.748 172.138C131.026 169.359 130.2 164.303 128.998 160.286C127.687 155.929 128.603 152.164 129.321 148.147C129.536 147.054 129.752 145.96 129.967 144.866Z" fill="#FBFCFC"/>
<path d="M133.26 113.596C123.8 125.717 121.502 126.398 107.14 121.575C101.163 119.567 94.9333 121.109 88.8477 120.553C89.099 118.975 89.6914 117.075 91.3609 117.236C103.766 118.366 109.348 109.688 114.896 101.063C116.583 98.4454 117.929 99.6646 119.007 101.153C122.812 106.442 128.449 109.526 133.26 113.596Z" fill="#7BC4FF"/>
<path d="M101.726 83.9037C101.133 89.9821 97.4352 93.5681 91.6188 93.4964C86.5385 93.4426 84.2047 88.978 84.474 84.4954C84.8151 78.7757 88.0643 74.6338 94.4911 75.0283C99.697 75.3869 101.708 78.9191 101.726 83.9037Z" fill="#949494"/>
<path d="M143.162 82.8094C142.516 87.7581 139.697 90.609 135.245 90.4118C129.321 90.1428 126.79 85.7499 126.898 80.4067C126.988 75.7449 130.273 73.145 134.904 73.7188C140.128 74.3822 142.677 78.0041 143.162 82.8094Z" fill="#949494"/>
<path d="M129.963 144.866C129.747 145.96 129.532 147.053 129.317 148.147C124.38 154.315 118.546 156.072 111.509 151.679C111.509 151.679 111.311 151.41 111.293 151.41C110.88 150.872 110.449 150.317 110.036 149.779C110.036 149.779 109.659 149.169 109.659 149.151C108.6 136.421 110.97 133.122 120.305 133.355C128.222 133.57 129.388 138.823 129.963 144.866Z" fill="#FCBE5A"/>
<path d="M111.493 151.698C118.548 156.091 124.365 154.334 129.301 148.166C128.583 152.182 127.668 155.947 128.978 160.304C130.181 164.321 131.007 169.395 125.729 172.156C120.846 172.138 115.963 172.12 111.08 172.102C106.52 165.199 111.673 158.493 111.493 151.698Z" fill="#5997FF"/>
<path d="M111.09 172.084C115.973 172.102 120.856 172.12 125.738 172.138C119.707 181.157 116.188 181.139 111.09 172.084Z" fill="#7BC4FF"/>
<path d="M110.035 149.797C110.448 150.335 110.879 150.891 111.291 151.429C110.25 151.375 109.712 150.909 110.035 149.797Z" fill="#99D0FB"/>
<ellipse cx="87.6495" cy="84.5209" rx="34.8409" ry="37.9627" fill="#FBFCFC"/>
<ellipse cx="139.913" cy="78.1931" rx="33.2572" ry="37.9627" fill="#FBFCFC"/>
<ellipse cx="98.7465" cy="86.1024" rx="7.91839" ry="7.90889" fill="#7D7D7D"/>
<ellipse cx="130.407" cy="82.9386" rx="7.91839" ry="7.90889" fill="#7D7D7D"/>
</g>
<defs>
<clipPath id="clip0_2991_73967">
<rect width="224" height="224" fill="white"/>
</clipPath>
</defs>
</svg>
